<svg xmlns="http://www.w3.org/2000/svg" viewBox="0 0 320 200" role="img" aria-labelledby="title desc">
  <title id="title">Background removal placeholder</title>
  <desc id="desc">A temporary illustration showing a subject separated from a checkerboard background.</desc>
  <defs>
    <pattern id="checker" width="24" height="24" patternUnits="userSpaceOnUse">
      <rect width="24" height="24" fill="#18181b"/>
      <rect width="12" height="12" fill="#27272a"/>
      <rect x="12" y="12" width="12" height="12" fill="#27272a"/>
    </pattern>
  </defs>
  <rect width="320" height="200" fill="#111114"/>
  <rect x="24" y="24" width="272" height="152" rx="8" fill="url(#checker)" stroke="#3f3f46"/>
  <path d="M84 48h60v104H84z" fill="#3f3f46" opacity=".45"/>
  <path d="M178 68h62v82h-62z" fill="#3f3f46" opacity=".45"/>
  <path d="M124 152h72" stroke="#34d399" stroke-width="2"/>
  <rect x="132" y="78" width="56" height="74" rx="8" fill="#f4f4f5"/>
  <path d="M112 78c8-34 30-46 48-46s40 12 48 46H112z" fill="#ef4444"/>
  <circle cx="141" cy="64" r="8" fill="#fff"/>
  <circle cx="178" cy="60" r="7" fill="#fff"/>
  <path d="M55 57l34 34m0-34L55 91" stroke="#f87171" stroke-width="5" stroke-linecap="round"/>
  <path d="M232 58l12 13 25-28" stroke="#34d399" stroke-width="5" stroke-linecap="round" stroke-linejoin="round"/>
</svg>
