<svg xmlns="http://www.w3.org/2000/svg" viewBox="0 0 48 48" aria-hidden="true">
  <rect
    x="5"
    y="10"
    width="38"
    height="28"
    rx="6"
    fill="none"
    stroke="#ffffff"
    stroke-width="2.5"
  />
  <rect x="15" y="16" width="18" height="16" rx="2.5" fill="none" stroke="#ffffff" stroke-width="2" />
  <path
    d="M20.5 19.5 27.5 24l-7 4.5Z"
    fill="#ffffff"
    fill-opacity="0.95"
  />
  <rect x="8.5" y="14" width="3.5" height="4.5" rx="1.2" fill="#ffffff" />
  <rect x="8.5" y="21.75" width="3.5" height="4.5" rx="1.2" fill="#ffffff" />
  <rect x="8.5" y="29.5" width="3.5" height="4.5" rx="1.2" fill="#ffffff" />
  <rect x="36" y="14" width="3.5" height="4.5" rx="1.2" fill="#ffffff" />
  <rect x="36" y="21.75" width="3.5" height="4.5" rx="1.2" fill="#ffffff" />
  <rect x="36" y="29.5" width="3.5" height="4.5" rx="1.2" fill="#ffffff" />
  <path
    d="M31.5 14.2h5.8a2.3 2.3 0 0 1 2.3 2.3v15a2.3 2.3 0 0 1-2.3 2.3h-5.8"
    stroke="#ffffff"
    stroke-width="2.2"
    fill="none"
    stroke-linecap="round"
  />
</svg>

