<svg width="64" height="64" viewBox="0 0 24 24" fill="none" xmlns="http://www.w3.org/2000/svg">
  <rect x="3" y="3" width="18" height="18" rx="4" fill="#0D1117"/>
  <path d="M12 6C10.3431 6 9 7.34315 9 9V10H8.5C7.67157 10 7 10.6716 7 11.5V16.5C7 17.3284 7.67157 18 8.5 18H15.5C16.3284 18 17 17.3284 17 16.5V11.5C17 10.6716 16.3284 10 15.5 10H15V9C15 7.34315 13.6569 6 12 6Z" fill="#1F88FF"/>
  <rect x="8.75" y="11.5" width="6.5" height="4.5" rx="1" fill="#F5F9FF"/>
  <path d="M11.5 13C11.2239 13 11 13.2239 11 13.5V14.5C11 14.7761 11.2239 15 11.5 15H12.5C12.7761 15 13 14.7761 13 14.5V13.5C13 13.2239 12.7761 13 12.5 13H11.5Z" fill="#1F88FF"/>
  <path d="M6 7L9 4" stroke="#F5F9FF" stroke-width="1.5" stroke-linecap="round"/>
  <path d="M18 7L15 4" stroke="#F5F9FF" stroke-width="1.5" stroke-linecap="round"/>
</svg>

