<svg width="64" height="64" viewBox="0 0 24 24" fill="none" xmlns="http://www.w3.org/2000/svg">
  <rect x="3" y="3" width="18" height="18" rx="4" fill="#0D1117"/>
  <path d="M8.5 10H8C7.17157 10 6.5 10.6716 6.5 11.5V16.5C6.5 17.3284 7.17157 18 8 18H15C15.8284 18 16.5 17.3284 16.5 16.5V11.5C16.5 10.6716 15.8284 10 15 10H11.5" stroke="#F5F9FF" stroke-width="1.5" stroke-linecap="round" stroke-linejoin="round"/>
  <path d="M11 6.5C11 5.67157 11.6716 5 12.5 5C13.3284 5 14 5.67157 14 6.5V9.5" stroke="#1F88FF" stroke-width="1.5" stroke-linecap="round"/>
  <circle cx="12.5" cy="14" r="1.25" fill="#1F88FF"/>
  <path d="M6 7L9 4" stroke="#F5F9FF" stroke-width="1.5" stroke-linecap="round"/>
  <path d="M18 7L15 4" stroke="#F5F9FF" stroke-width="1.5" stroke-linecap="round"/>
</svg>

